{
  "accessors": [
    {
      "bufferView": 2,
      "componentType": 5126,
      "count": 12277,
      "max": [
        0.49977579712867737,
        0.5,
        0.4683036506175995
      ],
      "min": [
        -0.49946755170822144,
        -0.5,
        -0.4683036506175995
      ],
      "type": "VEC3"
    },
    {
      "bufferView": 2,
      "byteOffset": 147324,
      "componentType": 5126,
      "count": 12277,
      "max": [
        0.9994762539863586,
        0.9994888305664063,
        1.0
      ],
      "min": [
        -0.9968485236167908,
        -0.9991363286972046,
        -1.0
      ],
      "type": "VEC3"
    },
    {
      "bufferView": 1,
      "componentType": 5126,
      "count": 12277,
      "max": [
        0.58210289478302,
        0.9999067783355713
      ],
      "min": [
        4.51505184173584e-05,
        0.00010454654693603516
      ],
      "type": "VEC2"
    },
    {
      "bufferView": 1,
      "byteOffset": 98216,
      "componentType": 5126,
      "count": 12277,
      "max": [
        0.58210289478302,
        0.9999067783355713
      ],
      "min": [
        4.51505184173584e-05,
        0.00010454654693603516
      ],
      "type": "VEC2"
    },
    {
      "bufferView": 1,
      "byteOffset": 196432,
      "componentType": 5126,
      "count": 12277,
      "max": [
        0.58210289478302,
        0.9999067783355713
      ],
      "min": [
        4.51505184173584e-05,
        0.00010454654693603516
      ],
      "type": "VEC2"
    },
    {
      "bufferView": 0,
      "componentType": 5125,
      "count": 72078,
      "type": "SCALAR"
    }
  ],
  "asset": {
    "extras": {
      "author": "andaners (https://sketchfab.com/andaners)",
      "license": "CC-BY-4.0 (http://creativecommons.org/licenses/by/4.0/)",
      "source": "https://sketchfab.com/3d-models/bit-coin-e69c8c86a5af47149e084118579fa285",
      "title": "bit coin"
    },
    "generator": "Sketchfab-12.66.0",
    "version": "2.0"
  },
  "bufferViews": [
    {
      "buffer": 0,
      "byteLength": 288312,
      "name": "floatBufferViews",
      "target": 34963
    },
    {
      "buffer": 0,
      "byteLength": 294648,
      "byteOffset": 288312,
      "byteStride": 8,
      "name": "floatBufferViews",
      "target": 34962
    },
    {
      "buffer": 0,
      "byteLength": 294648,
      "byteOffset": 582960,
      "byteStride": 12,
      "name": "floatBufferViews",
      "target": 34962
    }
  ],
  "buffers": [
    {
      "byteLength": 877608,
      "uri": "scene.bin"
    }
  ],
  "extensionsRequired": [
    "KHR_materials_pbrSpecularGlossiness"
  ],
  "extensionsUsed": [
    "KHR_materials_pbrSpecularGlossiness"
  ],
  "images": [
    {
      "uri": "textures/material_diffuse.png"
    },
    {
      "uri": "textures/material_specularGlossiness.png"
    }
  ],
  "materials": [
    {
      "doubleSided": true,
      "extensions": {
        "KHR_materials_pbrSpecularGlossiness": {
          "diffuseFactor": [
            1.0,
            1.0,
            1.0,
            1.0
          ],
          "diffuseTexture": {
            "index": 0
          },
          "glossinessFactor": 1.0,
          "specularFactor": [
            1.0,
            1.0,
            1.0
          ],
          "specularGlossinessTexture": {
            "index": 1
          }
        }
      },
      "name": "material"
    }
  ],
  "meshes": [
    {
      "name": "Object_0",
      "primitives": [
        {
          "attributes": {
            "NORMAL": 1,
            "POSITION": 0,
            "TEXCOORD_0": 2,
            "TEXCOORD_1": 3,
            "TEXCOORD_2": 4
          },
          "indices": 5,
          "material": 0,
          "mode": 4
        }
      ]
    }
  ],
  "nodes": [
    {
      "children": [
        1
      ],
      "matrix": [
        1.0,
        0.0,
        0.0,
        0.0,
        0.0,
        2.220446049250313e-16,
        -1.0,
        0.0,
        0.0,
        1.0,
        2.220446049250313e-16,
        0.0,
        0.0,
        0.0,
        0.0,
        1.0
      ],
      "name": "Sketchfab_model"
    },
    {
      "children": [
        2
      ],
      "name": "root"
    },
    {
      "children": [
        3
      ],
      "matrix": [
        1.0,
        0.0,
        0.0,
        0.0,
        0.0,
        2.220446049250313e-16,
        1.0,
        0.0,
        0.0,
        -1.0,
        2.220446049250313e-16,
        0.0,
        0.0,
        0.0,
        0.0,
        1.0
      ],
      "name": "GLTF_SceneRootNode"
    },
    {
      "children": [
        4
      ],
      "name": "root_1"
    },
    {
      "children": [
        5
      ],
      "matrix": [
        0.8601824385317218,
        -0.1913306881307488,
        0.30069748543545194,
        0.0,
        0.1869925822084951,
        0.8955641596259,
        0.034922711640921394,
        0.0,
        -0.15071674965875959,
        0.014302038830997866,
        0.4402441875712702,
        0.0,
        0.3774702250957489,
        0.027700038626790047,
        -0.19954976439476013,
        1.0
      ],
      "name": "_0"
    },
    {
      "mesh": 0,
      "name": "Object_5"
    }
  ],
  "samplers": [
    {
      "magFilter": 9729,
      "minFilter": 9987,
      "wrapS": 10497,
      "wrapT": 10497
    }
  ],
  "scene": 0,
  "scenes": [
    {
      "name": "Sketchfab_Scene",
      "nodes": [
        0
      ]
    }
  ],
  "textures": [
    {
      "sampler": 0,
      "source": 0
    },
    {
      "sampler": 0,
      "source": 1
    }
  ]
}
